HIERARCHY
ROOT simHips
{
  OFFSET -196.303 99.7911 397.044
  CHANNELS 6 Xposition Yposition Zposition Zrotation Xrotation Yrotation
  JOINT simSpine
  {
    OFFSET -0.000355721 21.3001 -0.016921
    CHANNELS 3 Zrotation Xrotation Yrotation
    JOINT simLeftArm
    {
      OFFSET 13.5181 21.3012 0
      CHANNELS 3 Zrotation Xrotation Yrotation
      JOINT simLeftForeArm
      {
        OFFSET 24.5783 0 0
        CHANNELS 3 Zrotation Xrotation Yrotation
        JOINT simLeftHand
        {
          OFFSET 24.5783 0 0
          CHANNELS 3 Zrotation Xrotation Yrotation
          End Site
          {
            OFFSET 7.32568 1.52588e-005 0.0169305
          }
        }
      }
    }
    JOINT simHead
    {
      OFFSET 0 27.4458 -0.00489235
      CHANNELS 3 Zrotation Xrotation Yrotation
      End Site
      {
        OFFSET 0 0 0
      }
    }
    JOINT simRightArm
    {
      OFFSET -13.5174 21.3012 0
      CHANNELS 3 Zrotation Xrotation Yrotation
      JOINT simRightForeArm
      {
        OFFSET -24.5783 0 0
        CHANNELS 3 Zrotation Xrotation Yrotation
        JOINT simRightHand
        {
          OFFSET -24.5783 0 0
          CHANNELS 3 Zrotation Xrotation Yrotation
          End Site
          {
            OFFSET -7.32568 1.52588e-005 0.0169305
          }
        }
      }
    }
  }
  JOINT simRightUpLeg
  {
    OFFSET -8.44614 -9.41038 0.835684
    CHANNELS 3 Zrotation Xrotation Yrotation
    JOINT simRightLeg
    {
      OFFSET 0 -40.9639 0
      CHANNELS 3 Zrotation Xrotation Yrotation
      JOINT simRightFoot
      {
        OFFSET 0 -40.9639 0
        CHANNELS 3 Zrotation Xrotation Yrotation
        End Site
        {
          OFFSET 0.50614 -9.67405 14.6709
        }
      }
    }
  }
  JOINT simLeftUpLeg
  {
    OFFSET 8.44614 -9.41038 0.835684
    CHANNELS 3 Zrotation Xrotation Yrotation
    JOINT simLeftLeg
    {
      OFFSET 0 -40.9639 0
      CHANNELS 3 Zrotation Xrotation Yrotation
      JOINT simLeftFoot
      {
        OFFSET 0 -40.9639 0
        CHANNELS 3 Zrotation Xrotation Yrotation
        End Site
        {
          OFFSET -0.50614 -9.67405 14.6709
        }
      }
    }
  }
}
MOTION
Frames:	30
Frame Time:	0.0333333
137.965 90.4127 219.663 3.76046 -10.5401 90.3424 1.8421 2.01373 2.84526 -54.5134 -13.9006 36.3714 -1.12423 4.1483 -101.52 -24.0583 48.0221 17.6444 -6.03117 9.09959 44.5767 31.6703 28.5831 30.2807 5.01902 11.8323 93.0966 -4.47583 17.541 7.70933 3.56214 14.1142 -26.1123 -19.5007 33.4294 13.9688 34.7701 -8.20009 13.2547 -0.453317 -32.3375 19.414 2.57338 30.5188 5.90218 33.0441 -11.9827 16.2544 
142.791 90.066 218.626 3.85987 -8.5809 93.8257 1.39086 1.90277 2.51149 -58.1783 -15.1547 32.9817 -1.09898 4.26884 -101.592 -22.1863 45.7341 16.5334 -8.2431 10.5242 42.6634 35.4511 25.9718 26.6047 4.88342 11.9809 93.9774 -6.17458 17.2962 8.3556 -2.19568 8.7249 -26.4499 -23.6424 45.7878 20.7273 30.8953 4.52233 9.73187 -7.1154 -31.7183 15.7983 5.96533 33.8749 4.80138 39.8575 -11.8656 16.7575 
147.585 90.2358 217.433 4.21188 -6.94521 98.235 1.07903 1.88534 2.11964 -62.2703 -12.7423 27.8076 -1.09868 4.25413 -101.613 -22.245 43.5753 15.9368 -9.87112 11.9309 39.7572 41.0862 23.6951 20.9084 4.75309 12.0718 94.8218 -7.63354 16.9731 9.04806 -6.60351 2.27556 -24.8998 -31.2659 57.1908 29.9324 27.6467 16.7992 6.9627 -11.663 -28.7339 13.5953 7.51242 36.0142 3.60428 41.2731 -15.0143 18.3918 
151.887 90.5104 216.298 4.55135 -5.09075 101.3 0.791799 2.02553 1.98508 -66.058 -9.15058 23.0833 -1.04958 4.35081 -102.076 -23.3149 42.083 15.1884 -12.9042 12.7776 38.9921 45.3888 23.0102 16.4739 4.74643 12.0272 94.8868 -9.51214 16.1833 9.77476 -9.59881 -4.38435 -20.6718 -39.7912 65.5464 38.3424 26.6969 17.2799 6.95488 -14.2517 -24.6861 11.6761 6.51247 36.886 3.67871 40.8723 -17.9617 19.7137 
156.213 90.956 214.962 4.09851 -4.06593 103.826 0.741921 1.9275 1.80741 -68.3947 -4.41678 17.921 -1.03337 4.37306 -102.239 -22.9251 39.5245 13.4552 -15.6931 13.2123 38.9155 49.1725 22.7994 13.3547 4.94134 11.8179 93.6353 -10.1571 16.3464 9.82386 -10.9852 -11.8735 -17.2951 -49.9826 70.3526 45.8762 23.9003 8.06081 8.83886 -16.1557 -20.7648 8.47235 4.96177 36.3541 4.8097 40.5837 -20.0733 21.0773 
160.521 91.7759 213.441 3.60347 -3.91591 107.494 0.979534 1.73225 1.30117 -68.8404 1.5983 12.368 -0.988964 4.43977 -102.666 -22.2769 35.8382 11.658 -17.137 13.8274 37.8178 53.5537 22.0242 9.39844 5.18068 11.5268 92.0266 -8.2738 18.8086 8.33767 -10.8033 -18.8502 -15.5865 -54.2571 70.8365 46.0313 20.117 2.11664 8.37897 -17.8322 -15.7032 8.21842 7.03283 32.9908 2.03235 39.9978 -21.6912 20.6468 
164.916 92.5819 211.921 3.04722 -4.33945 112.362 1.27439 1.45853 0.562615 -67.8493 7.79609 6.75875 -0.900198 4.45306 -103.682 -21.8953 32.519 9.74428 -16.8718 14.2879 35.2283 57.6653 20.2131 4.59571 5.35331 11.279 90.8032 -6.19369 20.9964 6.95932 -9.79654 -24.8068 -14.7234 -50.2152 68.5067 37.5736 15.9879 -0.753731 6.60076 -17.5201 -10.5274 5.93298 5.86729 29.8518 1.05213 40.0589 -22.9223 20.0737 
169.423 93.1545 210.485 2.56817 -5.2352 117.971 1.49901 1.17176 -0.24936 -65.3939 13.6784 0.947469 -0.756873 4.53666 -105.177 -20.1883 29.4745 7.1487 -14.3125 14.4809 30.9501 61.223 17.1531 -0.619876 5.42534 11.176 90.2733 -4.48736 22.0304 5.96086 -8.58858 -29.4244 -14.4876 -42.0874 63.5689 26.6386 14.3029 -3.8154 5.58943 -15.9374 -5.73753 4.18631 4.99863 27.1303 -0.786596 39.9259 -24.5369 19.2436 
173.985 93.5056 208.929 2.23144 -6.05443 123.703 1.58543 0.957645 -1.0162 -61.7708 18.762 -5.66642 -0.624227 4.55831 -106.624 -17.7016 27.0852 4.87191 -10.5193 14.3796 25.637 64.1943 12.986 -5.98066 5.44031 11.1518 90.1614 -3.11244 23.5146 4.98337 -7.83291 -32.4231 -14.4186 -32.9367 55.6998 16.7607 14.4735 -5.63466 5.62124 -13.6325 -1.18533 4.22019 4.22943 24.4876 -3.36475 40.0179 -25.9995 17.8713 
178.582 93.6559 207.12 2.34304 -6.61947 128.926 1.57004 0.913067 -1.70622 -57.5266 22.2215 -12.6051 -0.530695 4.62819 -107.5 -14.8751 25.8208 2.78317 -6.82527 13.8358 20.6423 66.63 8.3502 -11.1215 5.45377 11.1012 90.0565 -1.85416 25.8934 4.02768 -6.83957 -33.3706 -13.6018 -24.6199 44.6723 7.39749 17.8039 -5.64643 4.81938 -10.9574 3.79602 4.19548 3.16898 21.5138 -5.38153 39.8931 -26.8008 16.4737 
183.066 93.5588 204.991 2.84276 -6.75759 132.85 1.49663 1.03515 -2.18629 -53.4306 23.8323 -19.1538 -0.529381 4.73094 -107.277 -11.8563 25.5231 0.810392 -4.04111 13.1796 16.8326 68.2902 4.17359 -15.4363 5.5093 10.9731 89.6256 -0.546396 28.017 2.67481 -5.42633 -32.4874 -10.9407 -17.5256 31.7922 -0.312378 22.2768 -6.39305 4.12192 -8.35258 9.25134 3.01766 1.41579 18.184 -5.70957 39.9184 -26.1857 15.5026 
187.249 93.312 202.703 3.5942 -6.83928 134.978 1.42652 1.24535 -2.40906 -49.7162 23.9847 -24.6596 -0.681398 4.64341 -105.808 -8.86793 25.9742 -0.722184 -2.30232 12.859 14.9452 69.1958 1.3208 -18.3702 5.59912 10.8366 88.9209 1.09188 28.7156 1.23401 -4.64076 -31.0087 -5.51587 -10.1095 19.4869 -3.48944 27.353 -6.93895 5.05588 -5.99318 14.3091 3.32122 0.379287 15.3077 -6.46331 39.8131 -25.1579 14.2172 
191.584 92.3118 200.284 4.35071 -6.37583 135.271 1.29291 1.54776 -2.37683 -47.2601 22.9753 -28.2374 -0.956069 4.49668 -102.962 -6.59376 27.2389 -1.62415 -2.00111 13.3846 15.0506 69.1103 0.637555 -20.2253 5.71783 10.6486 87.9539 2.87506 28.6455 -0.156089 -2.76717 -30.2056 -1.13676 -7.13246 11.5021 -1.10773 37.1195 -9.02229 8.09601 -4.88463 18.2026 5.00243 0.525779 15.8847 -7.32056 39.9194 -25.4398 13.7659 
195.991 90.8545 197.488 4.99703 -5.87354 134.556 1.20393 1.83346 -2.31618 -46.2473 21.7072 -29.2159 -1.29037 4.20646 -99.2909 -5.92794 29.2894 -1.46945 -2.62748 14.1699 16.5065 68.5447 1.70066 -20.72 5.86381 10.3601 86.6756 4.86097 29.5265 -1.83042 -0.409343 -32.7876 -7.23107 -7.0415 14.5691 8.40251 42.1945 -9.0737 14.8356 -4.81321 21.2148 7.37272 1.5612 18.3855 -8.09254 40.0211 -25.3662 13.3278 
200.404 89.343 194.288 5.51593 -5.58209 133.432 1.20788 2.02618 -2.32995 -46.8022 20.6967 -27.4564 -1.57997 3.84492 -95.6793 -6.5799 33.1731 0.0437519 -3.99309 14.9334 19.0189 68.0211 3.48447 -20.1003 6.03032 9.97281 85.0623 7.22208 31.5041 -3.43733 2.28269 -35.9115 -13.8259 -9.94479 23.4715 16.8627 39.6267 -7.25724 19.0516 -5.21909 23.5608 10.6909 3.04635 21.4061 -9.29055 39.5751 -23.4763 11.6722 
204.339 88.9101 190.917 6.70892 -6.43153 133.487 1.56934 2.12327 -2.48685 -47.5148 20.972 -24.3216 -1.81993 3.43774 -92.075 -7.79984 39.1198 2.22602 -4.1299 16.0154 21.0263 69.0975 4.14993 -19.2336 6.22708 9.45 82.8775 7.84172 33.1257 -3.20309 7.596 -36.6786 -12.7224 -16.1403 29.2236 22.0378 31.397 -4.27425 19.3245 -3.47357 23.9958 12.5773 4.39403 25.5581 -10.8186 36.5575 -18.1036 7.88764 
208.248 89.0723 187.509 8.31828 -6.98885 134.797 2.00337 2.41138 -2.61457 -49.4802 23.2634 -20.0923 -1.97009 2.36503 -87.6173 -7.41414 46.1692 3.16513 -4.31734 16.9394 22.694 70.9134 4.62901 -18.7419 6.44089 8.31439 79.0944 3.77619 32.5538 -0.00999741 12.2142 -34.7289 -0.651807 -17.1326 35.7286 16.3912 33.9354 -10.8031 16.6738 1.22288 20.1791 12.7287 6.07654 36.5561 -15.3368 26.6204 -8.67085 1.35936 
211.909 89.4966 183.92 9.39806 -6.51095 136.727 2.21226 2.77896 -2.66708 -53.4616 27.616 -15.7998 -1.51377 -0.65506 -80.1546 -3.02936 49.8732 0.137942 -2.92555 18.9068 22.5333 73.5607 8.14153 -17.7087 5.75386 4.13707 72.3617 -3.60253 29.442 4.67891 12.8695 -31.8581 2.87746 -16.0195 40.7826 13.6258 30.5363 -16.4484 17.0089 5.46134 12.4764 13.2541 11.4418 51.8277 -23.4651 19.3464 3.47155 -4.23475 
215.093 90.5753 180.551 9.45129 -6.39155 139.988 2.32457 2.82253 -2.59212 -57.1295 32.6239 -14.8264 0.308707 -4.17353 -69.0046 1.82717 45.3583 -3.40394 -1.00499 20.606 20.0793 75.7456 10.3002 -16.0495 4.16744 0.334394 64.7947 -6.79094 23.92 5.48915 11.8805 -28.0646 -0.385144 -17.4934 39.9817 13.9531 30.7274 -19.8325 18.0052 7.6563 1.77866 10.8978 18.388 65.3618 -28.6347 15.1979 9.56368 -3.6503 
217.941 91.8946 177.092 9.36919 -7.20853 143.754 2.53771 2.57207 -2.18437 -59.2053 36.3644 -15.4521 2.67575 -5.47862 -55.7742 5.18173 34.6602 -4.53647 0.369928 21.2858 17.5813 77.6199 12.7575 -14.1624 2.10806 -2.39204 57.6473 -5.88236 16.5125 3.29827 10.8985 -24.2938 -6.86778 -18.8123 36.3413 14.9786 30.3403 -20.9838 19.0621 9.40504 -9.55565 8.95365 24.5055 75.7915 -31.9527 17.3634 -0.256097 0.883626 
220.769 93.1352 173.279 8.49086 -6.7895 145.514 2.32953 2.4485 -1.40144 -62.4162 38.233 -14.1624 4.41256 -4.9246 -43.0082 7.58021 22.9744 -3.74617 -0.535726 21.9201 16.5502 77.6319 19.1352 -12.4509 0.169627 -3.79868 50.6631 -5.66385 7.92971 1.83542 9.29188 -19.7544 -10.1345 -18.6746 33.2817 14.7087 30.0786 -21.9579 19.7997 9.22472 -19.0711 12.0923 31.717 79.7513 -35.3904 18.5746 -6.52264 5.324 
223.549 93.8425 169.198 8.12751 -6.30792 146.752 2.14408 2.40756 -0.673675 -65.0467 37.4673 -10.6743 3.6146 -2.95093 -32.7793 9.22743 14.6267 -1.71912 -1.14557 22.3898 15.4076 77.2806 27.674 -11.0153 -0.903193 -3.85909 44.4626 -5.74986 0.592461 1.2448 8.82303 -14.7654 -8.88712 -17.1241 31.3831 11.7561 29.8984 -23.6687 19.3041 9.39378 -26.9373 16.2762 29.1539 79.6207 -29.9212 19.053 -11.1447 8.7713 
226.398 93.912 164.78 8.5297 -6.53543 148.37 2.17104 2.27645 -0.150483 -66.2144 33.3955 -6.02836 1.47053 -1.31638 -25.0807 9.00203 12.434 -0.356997 -0.62759 22.0376 13.7416 76.8292 35.6306 -9.2504 -1.20706 -3.39404 39.8014 -3.15495 -0.746797 1.29353 9.76805 -9.95238 -9.44641 -17.1905 29.2046 10.2388 30.2684 -25.3041 19.217 10.5223 -33.9861 19.1484 20.0825 76.4567 -21.4229 21.0926 -14.315 9.27111 
229.443 93.3266 159.931 9.49463 -6.96531 150.51 2.3075 2.1185 0.204209 -65.9841 29.9179 -0.516601 0.941201 -0.863966 -19.984 7.76392 12.2278 0.629318 0.402596 21.3164 11.9602 76.1909 41.97 -7.40767 -1.58907 -3.27575 37.0103 1.62058 3.78069 1.22036 10.7209 -4.9931 -10.8617 -15.987 27.7438 8.47684 30.3837 -27.517 19.5208 11.4672 -39.5226 19.5054 11.1556 70.1379 -14.3092 20.1423 -16.8409 8.70741 
232.613 92.3591 154.734 10.3898 -6.73779 152.282 2.35527 2.07685 0.55876 -65.2009 26.6475 5.79491 1.20015 -0.745161 -16.5454 6.50097 13.8336 0.471602 0.961353 20.6846 10.8343 74.6541 47.2554 -5.51245 -1.66281 -3.14737 35.7357 5.56887 9.63129 0.411681 10.7598 1.09554 -12.4388 -13.3187 25.925 6.73504 30.2068 -29.5138 20.1895 11.4854 -42.7359 18.2788 5.6195 60.597 -9.91235 18.7702 -18.9796 8.61487 
235.613 91.4131 149.483 10.3418 -5.9435 152.757 2.17773 2.13668 1.00284 -64.9548 24.0893 12.7088 1.69445 -0.727407 -14.6806 5.71118 13.635 0.481871 0.500889 19.9511 10.9493 71.2809 52.2211 -2.73847 -1.63507 -3.05363 35.1881 7.17336 13.3026 -0.615104 9.1331 8.03648 -12.6587 -9.34896 22.847 4.93203 29.6986 -30.2142 20.5837 9.99877 -43.9231 17.0026 4.97199 48.2794 -8.42978 17.8925 -19.4623 9.24564 
238.31 90.4943 144.484 9.31418 -5.10971 151.665 1.83908 2.25823 1.52845 -65.7621 22.0351 19.4209 1.92835 -0.669755 -13.221 5.65483 11.7147 1.10611 -0.901184 18.7491 12.4989 66.4088 55.54 1.10009 -1.98639 -3.20297 34.6047 6.83826 15.2344 -1.05107 6.51952 14.0017 -11.5876 -6.96924 19.9194 4.5873 30.1346 -29.8105 21.0777 7.90423 -44.3016 14.3518 5.33728 36.8769 -4.78152 21.5768 -17.5896 11.4958 
240.815 89.423 139.685 8.55104 -4.60148 149.563 1.55848 2.43408 2.10862 -66.4108 18.8536 25.5108 2.04147 -0.559039 -11.3505 4.48001 11 2.53091 -2.19055 17.7247 15.1544 62.9748 56.3287 4.38919 -2.96407 -3.65389 33.4829 3.95547 15.8111 -0.608242 4.30218 17.6919 -10.4192 -6.89751 19.945 5.63167 31.272 -29.0428 21.7048 8.27928 -44.9037 11.2031 3.41374 31.8621 3.05048 25.1454 -14.7396 15.4917 
243.224 88.3091 134.605 7.81588 -4.08943 147.619 1.22859 2.56803 2.54789 -67.4838 15.5585 30.5273 2.27091 -0.390175 -8.63997 2.33738 11.1439 4.36382 -3.87283 17.1722 17.9539 62.5849 53.7102 4.91204 -4.08144 -4.19844 32.6712 -1.65102 15.7911 0.790751 2.04267 19.7439 -11.0145 -8.47201 22.4311 7.92825 31.7073 -26.7453 21.8519 9.79952 -45.8304 12.0882 2.55271 34.9005 4.98096 26.5843 -15.2794 16.81 
245.475 88.0212 129.514 5.60643 -3.0037 147.311 0.568479 2.56398 2.51969 -70.1663 13.4579 33.4492 2.23499 -0.177599 -5.6515 0.685858 11.0135 5.81534 -6.30872 16.7184 18.816 63.0909 47.9742 3.1769 -4.49592 -4.53175 33.0964 -8.30943 14.3575 3.33122 0.291537 20.1403 -13.7108 -13.2177 25.3245 10.2738 29.6486 -21.2045 19.2657 8.30022 -46.2148 14.6892 3.64932 40.3535 3.34044 22.5156 -10.0855 14.0507 
